<?xml version="1.0" encoding="UTF-8"?>
<svg xmlns="http://www.w3.org/2000/svg" xmlns:xlink="http://www.w3.org/1999/xlink" width="1500pt" height="1000pt" viewBox="600 450 145.078125 137.57421875" version="1.1">
<g id="surface1">
<path style=" stroke:none;" d="M 695.632812 550.847656 L 695.632812 553.851562 L 677.460938 553.851562 L 692.347656 535.421875 L 682.378906 535.421875 C 681.554688 535.421875 680.988281 535.527344 680.679688 535.738281 C 680.371094 535.953125 680.15625 536.476562 680.035156 537.308594 L 679.84375 537.308594 L 679.945312 534.691406 L 695.710938 534.691406 L 680.777344 553.136719 L 693.484375 553.136719 C 694.222656 553.136719 694.71875 552.984375 694.976562 552.679688 C 695.230469 552.378906 695.386719 551.765625 695.4375 550.847656 Z M 695.632812 550.847656 "/>
<path style=" stroke:none;" d="M 703.992188 544.5 L 709.175781 544.5 L 706.589844 537.96875 Z M 709.433594 545.035156 L 703.808594 545.035156 L 700.910156 552.265625 C 700.710938 552.785156 700.609375 553.105469 700.609375 553.226562 C 700.609375 553.515625 700.824219 553.65625 701.25 553.65625 L 701.25 553.851562 L 698.398438 553.851562 L 698.398438 553.65625 C 698.78125 553.65625 699.101562 553.5625 699.359375 553.378906 C 699.621094 553.191406 699.90625 552.707031 700.21875 551.925781 L 707.164062 534.40625 L 707.507812 534.40625 L 714.339844 551.328125 C 714.339844 551.414062 714.515625 551.824219 714.863281 552.558594 C 715.214844 553.289062 715.75 553.65625 716.464844 553.65625 L 716.464844 553.851562 L 711.992188 553.851562 L 711.992188 553.65625 C 712.398438 553.65625 712.601562 553.496094 712.601562 553.175781 C 712.601562 552.960938 712.503906 552.613281 712.304688 552.136719 C 712.269531 552.101562 712.238281 552.042969 712.214844 551.964844 C 712.195312 551.878906 712.183594 551.835938 712.175781 551.835938 Z M 709.433594 545.035156 "/>
<path style=" stroke:none;" d="M 735.480469 534.691406 L 739.1875 534.691406 L 739.1875 534.886719 C 738.625 534.90625 738.234375 535.023438 738.015625 535.246094 C 737.800781 535.464844 737.691406 535.933594 737.691406 536.644531 L 737.691406 554.085938 L 722.410156 537.8125 L 722.410156 551.980469 C 722.410156 552.429688 722.441406 552.765625 722.511719 552.980469 C 722.582031 553.199219 722.679688 553.34375 722.8125 553.421875 C 722.941406 553.5 723.265625 553.578125 723.789062 553.65625 L 723.789062 553.851562 L 720.105469 553.851562 L 720.105469 553.65625 C 720.765625 553.65625 721.175781 553.539062 721.335938 553.304688 C 721.496094 553.070312 721.578125 552.511719 721.578125 551.628906 L 721.578125 538.671875 C 721.578125 537.535156 721.417969 536.609375 721.101562 535.890625 C 720.785156 535.167969 720.054688 534.835938 718.910156 534.886719 L 718.910156 534.691406 L 722.511719 534.691406 L 736.871094 549.984375 L 736.871094 536.460938 C 736.871094 535.734375 736.742188 535.289062 736.480469 535.128906 C 736.222656 534.96875 735.886719 534.886719 735.480469 534.886719 Z M 735.480469 534.691406 "/>
<path style=" stroke:none;" d="M 752.4375 534.941406 L 753.347656 537.332031 L 753.195312 537.359375 C 753.195312 537.351562 752.953125 537.09375 752.472656 536.59375 C 751.992188 536.089844 751.441406 535.699219 750.820312 535.429688 C 750.199219 535.15625 749.5 535.019531 748.71875 535.019531 C 747.410156 535.019531 746.371094 535.394531 745.601562 536.144531 C 744.835938 536.894531 744.453125 537.796875 744.453125 538.855469 C 744.453125 539.558594 744.632812 540.171875 744.992188 540.695312 C 745.351562 541.21875 746.101562 541.710938 747.25 542.164062 C 749.214844 542.828125 750.558594 543.324219 751.285156 543.660156 C 752.007812 543.992188 752.707031 544.558594 753.378906 545.355469 C 754.054688 546.152344 754.390625 547.171875 754.390625 548.417969 C 754.390625 548.941406 754.328125 549.4375 754.207031 549.910156 C 754.085938 550.378906 753.890625 550.835938 753.621094 551.273438 C 753.351562 551.710938 753.03125 552.109375 752.652344 552.46875 C 752.277344 552.828125 751.890625 553.101562 751.5 553.285156 C 751.113281 553.472656 750.496094 553.613281 749.65625 553.710938 C 748.816406 553.804688 748.257812 553.851562 747.992188 553.851562 L 742.878906 553.851562 L 742.878906 548.285156 L 743.074219 548.285156 C 743.089844 550.132812 743.523438 551.417969 744.375 552.148438 C 745.222656 552.875 746.546875 553.242188 748.339844 553.242188 C 749.972656 553.242188 751.210938 552.855469 752.054688 552.082031 C 752.902344 551.3125 753.324219 550.382812 753.324219 549.296875 C 753.324219 548.640625 753.175781 548.078125 752.878906 547.617188 C 752.585938 547.152344 752.171875 546.742188 751.644531 546.390625 C 751.117188 546.042969 750.117188 545.613281 748.640625 545.105469 C 747.175781 544.59375 746.148438 544.140625 745.554688 543.757812 C 744.960938 543.371094 744.460938 542.789062 744.0625 542.015625 C 743.664062 541.238281 743.464844 540.449219 743.464844 539.644531 C 743.464844 538.164062 743.972656 536.917969 744.992188 535.914062 C 746.011719 534.910156 747.347656 534.40625 749.003906 534.40625 C 749.648438 534.40625 750.339844 534.480469 751.085938 534.628906 C 751.832031 534.777344 752.25 534.871094 752.335938 534.914062 C 752.371094 534.929688 752.40625 534.941406 752.4375 534.941406 "/>
<path style=" stroke:none;" d="M 757.871094 534.691406 L 763.363281 534.691406 L 763.363281 534.886719 C 762.765625 534.863281 762.34375 534.949219 762.101562 535.15625 C 761.855469 535.359375 761.734375 535.890625 761.734375 536.746094 L 761.734375 544.097656 L 773.117188 535.550781 C 773.34375 535.394531 773.453125 535.253906 773.453125 535.121094 C 773.453125 534.964844 773.199219 534.886719 772.6875 534.886719 L 772.6875 534.691406 L 776.824219 534.691406 L 776.824219 534.886719 C 775.78125 534.914062 774.769531 535.292969 773.777344 536.03125 L 763.859375 543.425781 L 773.753906 550.941406 C 773.761719 550.949219 773.773438 550.957031 773.792969 550.964844 C 773.8125 550.976562 773.824219 550.988281 773.832031 551.003906 C 773.851562 551.015625 773.867188 551.019531 773.886719 551.019531 C 775.183594 551.988281 776.191406 552.671875 776.90625 553.066406 C 777.621094 553.460938 778.292969 553.65625 778.917969 553.65625 L 778.917969 553.851562 L 772.402344 553.851562 L 772.402344 553.65625 C 772.980469 553.65625 773.273438 553.589844 773.273438 553.460938 C 773.273438 553.347656 773.035156 553.109375 772.558594 552.746094 L 761.734375 544.527344 L 761.734375 551.628906 C 761.734375 552.460938 761.796875 552.972656 761.910156 553.164062 C 762.027344 553.355469 762.183594 553.492188 762.378906 553.574219 C 762.574219 553.65625 762.894531 553.683594 763.335938 553.65625 L 763.335938 553.851562 L 757.871094 553.851562 L 757.871094 553.65625 C 758.601562 553.691406 759.058594 553.582031 759.246094 553.324219 C 759.433594 553.070312 759.523438 552.53125 759.523438 551.707031 L 759.523438 536.851562 C 759.523438 536 759.433594 535.453125 759.246094 535.199219 C 759.058594 534.949219 758.601562 534.84375 757.871094 534.886719 Z M 757.871094 534.691406 "/>
<path style=" stroke:none;" d="M 786.890625 544.5 L 792.074219 544.5 L 789.484375 537.96875 Z M 792.328125 545.035156 L 786.707031 545.035156 L 783.804688 552.265625 C 783.609375 552.785156 783.507812 553.105469 783.507812 553.226562 C 783.507812 553.515625 783.71875 553.65625 784.144531 553.65625 L 784.144531 553.851562 L 781.296875 553.851562 L 781.296875 553.65625 C 781.675781 553.65625 781.996094 553.5625 782.257812 553.378906 C 782.519531 553.191406 782.804688 552.707031 783.117188 551.925781 L 790.058594 534.40625 L 790.40625 534.40625 L 797.234375 551.328125 C 797.234375 551.414062 797.410156 551.824219 797.761719 552.558594 C 798.109375 553.289062 798.644531 553.65625 799.363281 553.65625 L 799.363281 553.851562 L 794.886719 553.851562 L 794.886719 553.65625 C 795.296875 553.65625 795.5 553.496094 795.5 553.175781 C 795.5 552.960938 795.398438 552.613281 795.199219 552.136719 C 795.164062 552.101562 795.136719 552.042969 795.109375 551.964844 C 795.089844 551.878906 795.078125 551.835938 795.070312 551.835938 Z M 792.328125 545.035156 "/>
<path style=" stroke:none;" d="M 806.253906 535.199219 L 806.253906 544.1875 L 808.261719 544.1875 C 809.84375 544.1875 811.015625 543.816406 811.78125 543.070312 C 812.542969 542.324219 812.925781 541.34375 812.925781 540.128906 C 812.925781 538.949219 812.550781 537.835938 811.800781 536.78125 C 811.046875 535.726562 809.726562 535.199219 807.832031 535.199219 Z M 802.664062 534.886719 L 802.664062 534.691406 L 808.101562 534.691406 C 809.480469 534.691406 810.476562 534.722656 811.09375 534.785156 C 811.707031 534.84375 812.339844 535.046875 812.984375 535.386719 C 813.632812 535.730469 814.117188 536.195312 814.449219 536.78125 C 814.777344 537.367188 814.941406 538.085938 814.941406 538.9375 C 814.941406 539.910156 814.648438 540.835938 814.066406 541.714844 C 813.480469 542.59375 812.652344 543.339844 811.585938 543.949219 L 812.941406 546.027344 C 813.234375 546.546875 814.015625 547.6875 815.285156 549.445312 C 816.558594 551.203125 817.539062 552.277344 818.234375 552.660156 C 818.925781 553.046875 819.597656 553.242188 820.25 553.242188 C 820.890625 553.242188 821.628906 552.992188 822.460938 552.5 L 822.539062 552.757812 C 821.5 553.609375 820.148438 554.035156 818.484375 554.035156 C 817.375 554.035156 816.421875 553.707031 815.625 553.050781 C 814.828125 552.394531 813.441406 550.59375 811.464844 547.644531 C 811.445312 547.628906 811.4375 547.613281 811.4375 547.59375 L 809.511719 544.628906 L 807.804688 544.679688 L 806.253906 544.679688 L 806.253906 552.007812 C 806.253906 552.59375 806.332031 553.019531 806.484375 553.273438 C 806.640625 553.53125 807.015625 553.65625 807.605469 553.65625 L 807.605469 553.851562 L 802.664062 553.851562 L 802.664062 553.65625 C 803.28125 553.632812 803.664062 553.5 803.816406 553.265625 C 803.96875 553.035156 804.042969 552.554688 804.042969 551.835938 L 804.042969 536.617188 C 804.042969 536.121094 803.976562 535.714844 803.847656 535.386719 C 803.71875 535.0625 803.324219 534.898438 802.664062 534.886719 "/>
<path style=" stroke:none;" d="M 694.976562 563.320312 C 694.976562 562.003906 694.109375 561.253906 692.46875 561.253906 L 690.285156 561.253906 L 690.285156 565.375 L 692.46875 565.375 C 694.109375 565.375 694.976562 564.609375 694.976562 563.320312 M 695.023438 568.714844 L 693.148438 566.078125 C 692.9375 566.101562 692.726562 566.113281 692.492188 566.113281 L 690.285156 566.113281 L 690.285156 568.714844 L 689.417969 568.714844 L 689.417969 560.503906 L 692.492188 560.503906 C 694.578125 560.503906 695.847656 561.558594 695.847656 563.320312 C 695.847656 564.609375 695.167969 565.515625 693.96875 565.902344 L 695.976562 568.714844 Z M 695.023438 568.714844 "/>
<path style=" stroke:none;" d="M 711.933594 567.964844 L 711.933594 568.71875 L 706.125 568.71875 L 706.125 560.503906 L 711.757812 560.503906 L 711.757812 561.253906 L 706.992188 561.253906 L 706.992188 564.175781 L 711.242188 564.175781 L 711.242188 564.914062 L 706.992188 564.914062 L 706.992188 567.964844 Z M 711.933594 567.964844 "/>
<path style=" stroke:none;" d="M 721.410156 567.71875 L 721.75 567.050781 C 722.339844 567.625 723.382812 568.046875 724.464844 568.046875 C 726 568.046875 726.667969 567.402344 726.667969 566.59375 C 726.667969 564.339844 721.613281 565.726562 721.613281 562.6875 C 721.613281 561.476562 722.550781 560.433594 724.640625 560.433594 C 725.566406 560.433594 726.527344 560.703125 727.183594 561.160156 L 726.890625 561.851562 C 726.1875 561.394531 725.367188 561.171875 724.640625 561.171875 C 723.136719 561.171875 722.46875 561.839844 722.46875 562.660156 C 722.46875 564.914062 727.527344 563.554688 727.527344 566.546875 C 727.527344 567.753906 726.5625 568.785156 724.464844 568.785156 C 723.230469 568.785156 722.023438 568.355469 721.410156 567.71875 "/>
<path style=" stroke:none;" d="M 743.445312 567.964844 L 743.445312 568.71875 L 737.636719 568.71875 L 737.636719 560.503906 L 743.269531 560.503906 L 743.269531 561.253906 L 738.507812 561.253906 L 738.507812 564.175781 L 742.753906 564.175781 L 742.753906 564.914062 L 738.507812 564.914062 L 738.507812 567.964844 Z M 743.445312 567.964844 "/>
<path style=" stroke:none;" d="M 758.546875 565.820312 L 756.574219 561.40625 L 754.605469 565.820312 Z M 758.863281 566.523438 L 754.285156 566.523438 L 753.300781 568.714844 L 752.398438 568.714844 L 756.152344 560.503906 L 757.007812 560.503906 L 760.765625 568.714844 L 759.847656 568.714844 Z M 758.863281 566.523438 "/>
<path style=" stroke:none;" d="M 775.910156 563.320312 C 775.910156 562.003906 775.042969 561.253906 773.402344 561.253906 L 771.21875 561.253906 L 771.21875 565.375 L 773.402344 565.375 C 775.042969 565.375 775.910156 564.609375 775.910156 563.320312 M 775.957031 568.714844 L 774.082031 566.078125 C 773.871094 566.101562 773.660156 566.113281 773.425781 566.113281 L 771.21875 566.113281 L 771.21875 568.714844 L 770.347656 568.714844 L 770.347656 560.503906 L 773.425781 560.503906 C 775.511719 560.503906 776.78125 561.558594 776.78125 563.320312 C 776.78125 564.609375 776.097656 565.515625 774.902344 565.902344 L 776.910156 568.714844 Z M 775.957031 568.714844 "/>
<path style=" stroke:none;" d="M 786.332031 564.609375 C 786.332031 562.203125 788.160156 560.433594 790.636719 560.433594 C 791.832031 560.433594 792.914062 560.832031 793.640625 561.628906 L 793.089844 562.179688 C 792.421875 561.5 791.597656 561.207031 790.660156 561.207031 C 788.675781 561.207031 787.1875 562.664062 787.1875 564.609375 C 787.1875 566.558594 788.675781 568.011719 790.660156 568.011719 C 791.597656 568.011719 792.421875 567.71875 793.089844 567.027344 L 793.640625 567.578125 C 792.914062 568.378906 791.832031 568.789062 790.625 568.789062 C 788.160156 568.789062 786.332031 567.015625 786.332031 564.609375 "/>
<path style=" stroke:none;" d="M 810.582031 560.503906 L 810.582031 568.71875 L 809.726562 568.71875 L 809.726562 564.925781 L 804.585938 564.925781 L 804.585938 568.71875 L 803.71875 568.71875 L 803.71875 560.503906 L 804.585938 560.503906 L 804.585938 564.164062 L 809.726562 564.164062 L 809.726562 560.503906 Z M 810.582031 560.503906 "/>
<path style=" stroke:none;" d="M 733.617188 525.285156 L 741.160156 514.628906 L 751.742188 529.578125 L 775.863281 495.511719 L 800.238281 529.9375 L 809.589844 529.9375 L 775.863281 482.308594 L 751.742188 516.371094 L 741.160156 501.425781 L 733.773438 511.859375 L 718.867188 489.746094 L 690.410156 529.9375 L 699.761719 529.9375 L 718.714844 503.171875 Z M 733.617188 525.285156 "/>
<path style=" stroke:none;" d="M 805.585938 516.972656 L 805.585938 431.214844 L 694.414062 431.214844 L 694.414062 516.972656 L 699.117188 510.328125 L 699.117188 435.917969 L 800.882812 435.917969 L 800.882812 510.328125 Z M 805.585938 516.972656 "/>
<path style=" stroke:none;" d="M 744.335938 453.121094 C 743.929688 452.945312 743.652344 452.832031 743.386719 452.703125 C 741.945312 452 741.015625 450.917969 740.894531 449.265625 C 740.800781 448.039062 741.238281 446.992188 742.128906 446.160156 C 743.203125 445.160156 746.277344 444.898438 746.453125 445.257812 C 746.328125 445.320312 744.925781 446.183594 744.421875 446.652344 C 743.671875 447.351562 743.367188 448.269531 743.433594 449.300781 C 743.46875 449.90625 743.695312 450.449219 744.203125 450.78125 C 744.726562 451.121094 745.316406 451.367188 745.800781 451.613281 C 747.089844 450.738281 748.253906 449.90625 749.457031 449.136719 C 751.464844 447.855469 753.554688 446.71875 755.835938 445.988281 C 756.464844 445.789062 757.144531 445.660156 757.804688 445.652344 C 758.878906 445.640625 759.402344 446.433594 759.097656 447.46875 C 758.917969 448.089844 758.515625 448.566406 758.058594 449 C 757.207031 449.8125 756.210938 450.414062 755.183594 450.96875 C 752.699219 452.308594 750.054688 453.125 747.238281 453.371094 C 746.917969 453.398438 746.664062 453.5 746.417969 453.734375 C 741.679688 458.175781 738.757812 463.597656 737.636719 469.984375 C 737.261719 472.132812 737.117188 474.308594 737.613281 476.464844 C 737.75 477.058594 737.957031 477.644531 738.207031 478.199219 C 739.066406 480.089844 740.601562 481.023438 742.632812 481.261719 C 744.488281 481.480469 746.347656 481.445312 748.210938 481.359375 C 749.902344 481.277344 751.59375 481.195312 753.28125 481.082031 C 757.148438 480.820312 759.710938 483.222656 760.335938 486.578125 C 760.761719 488.863281 760.667969 491.132812 759.902344 493.335938 C 758.574219 497.167969 754.984375 499.515625 750.921875 499.230469 C 750.328125 499.191406 749.722656 499.085938 749.164062 498.898438 C 748.757812 498.765625 748.375 498.488281 748.054688 498.191406 C 747.433594 497.625 747.226562 496.902344 747.523438 496.09375 C 747.816406 495.304688 748.441406 494.875 749.25 494.828125 C 749.816406 494.792969 750.398438 494.894531 750.960938 494.996094 C 751.703125 495.132812 752.429688 495.355469 753.171875 495.496094 C 755.414062 495.917969 757.179688 494.953125 758.054688 492.839844 C 758.484375 491.796875 758.566406 490.714844 758.332031 489.621094 C 757.964844 487.902344 756.535156 486.667969 754.746094 486.609375 C 753.679688 486.574219 752.609375 486.691406 751.546875 486.777344 C 749.453125 486.949219 747.355469 487.222656 745.253906 487.074219 C 744.097656 486.992188 742.933594 486.8125 741.816406 486.519531 C 739.441406 485.902344 737.722656 484.433594 736.613281 482.238281 C 735.710938 480.453125 735.226562 478.554688 735.078125 476.574219 C 734.46875 468.570312 736.9375 461.570312 742.039062 455.449219 C 742.386719 455.03125 742.742188 454.621094 743.121094 454.238281 C 743.488281 453.863281 743.890625 453.527344 744.335938 453.121094 "/>
</g>
</svg>